# xmcd
#
# Track frame offsets:
#	150
#	28931
#	51210
#	73627
#	98369
#	120749
#	141526
#	157910
#	180125
#	198742
#	221407
#
# Disc length: 3286 seconds
#
# Revision: 3
# Processed by: cddbd v1.4b41PL1 Copyright (c) Steve Scherf et al.
# Submitted via: audiograbber 1.80
#
DISCID=980cd40b
DTITLE=Creed - My Own Prison
DYEAR=1900
DGENRE=
TTITLE0=Torn
TTITLE1=Ode
TTITLE2=My Own Prison
TTITLE3=Pity For A Time
TTITLE4=In America
TTITLE5=Illusion
TTITLE6=Unforgiven
TTITLE7=Sister
TTITLE8=What´s This Life For
TTITLE9=One
TTITLE10=Bound and Tired
EXTD=Fehlerkorrigierte Eintragung\n(Errorcorrectet)
EXTT0=
EXTT1=
EXTT2=
EXTT3=
EXTT4=
EXTT5=
EXTT6=
EXTT7=
EXTT8=
EXTT9=
EXTT10=
PLAYORDER=
